<svg xmlns="http://www.w3.org/2000/svg" viewBox="0 0 2100 900">
  <defs>
    <linearGradient id="bg" x1="0%" y1="0%" x2="100%" y2="100%">
      <stop offset="0%" style="stop-color:#030712"/>
      <stop offset="50%" style="stop-color:#0f172a"/>
      <stop offset="100%" style="stop-color:#030712"/>
    </linearGradient>
    <radialGradient id="g1" cx="25%" cy="40%" r="35%">
      <stop offset="0%" style="stop-color:#0d9488;stop-opacity:0.12"/>
      <stop offset="100%" style="stop-color:#0d9488;stop-opacity:0"/>
    </radialGradient>
    <radialGradient id="g2" cx="75%" cy="60%" r="35%">
      <stop offset="0%" style="stop-color:#f59e0b;stop-opacity:0.08"/>
      <stop offset="100%" style="stop-color:#f59e0b;stop-opacity:0"/>
    </radialGradient>
  </defs>
  <rect width="2100" height="900" fill="url(#bg)"/>
  <rect width="2100" height="900" fill="url(#g1)"/>
  <rect width="2100" height="900" fill="url(#g2)"/>
  <circle cx="400" cy="350" r="3" fill="#0d9488" opacity="0.4"/>
  <circle cx="600" cy="250" r="2" fill="#0d9488" opacity="0.3"/>
  <circle cx="800" cy="400" r="3" fill="#14b8a6" opacity="0.35"/>
  <circle cx="1000" cy="300" r="2" fill="#f59e0b" opacity="0.3"/>
  <circle cx="1200" cy="450" r="3" fill="#f59e0b" opacity="0.25"/>
  <circle cx="1400" cy="350" r="2" fill="#0d9488" opacity="0.3"/>
  <circle cx="1600" cy="280" r="3" fill="#14b8a6" opacity="0.35"/>
  <line x1="400" y1="350" x2="600" y2="250" stroke="#0d9488" stroke-width="0.5" opacity="0.15"/>
  <line x1="600" y1="250" x2="800" y2="400" stroke="#0d9488" stroke-width="0.5" opacity="0.12"/>
  <line x1="800" y1="400" x2="1000" y2="300" stroke="#14b8a6" stroke-width="0.5" opacity="0.1"/>
  <line x1="1000" y1="300" x2="1200" y2="450" stroke="#f59e0b" stroke-width="0.5" opacity="0.1"/>
  <line x1="1200" y1="450" x2="1400" y2="350" stroke="#f59e0b" stroke-width="0.5" opacity="0.12"/>
  <line x1="1400" y1="350" x2="1600" y2="280" stroke="#0d9488" stroke-width="0.5" opacity="0.15"/>
</svg>
